HIERARCHY
ROOT joint_Root
{
	OFFSET 0.0 0.0 0.0
	CHANNELS 6 Xposition Yposition Zposition Zrotation Xrotation Yrotation 
	JOINT Hips
	{
		OFFSET -0.726466 93.3139 -2.00062
		CHANNELS 6 Xposition Yposition Zposition Zrotation Xrotation Yrotation 
		JOINT Spine
		{
			OFFSET 15.7357 0.0 0.0
			CHANNELS 6 Xposition Yposition Zposition Zrotation Xrotation Yrotation 
			JOINT Chest
			{
				OFFSET 8.98455 -0.406207 0.0
				CHANNELS 6 Xposition Yposition Zposition Zrotation Xrotation Yrotation 
				JOINT Neck
				{
					OFFSET 16.3773 0.0 0.0
					CHANNELS 6 Xposition Yposition Zposition Zrotation Xrotation Yrotation 
					JOINT Head
					{
						OFFSET 6.45672 0.0 0.0
						CHANNELS 6 Xposition Yposition Zposition Zrotation Xrotation Yrotation 
						End Site
						{
							OFFSET 0.0 0.0 0.0
						}
					}
				}
				JOINT Shoulder_L
				{
					OFFSET 12.9942 -0.242716 4.98039
					CHANNELS 6 Xposition Yposition Zposition Zrotation Xrotation Yrotation 
					JOINT UpperArm_L
					{
						OFFSET 5.34809 0.0 0.0
						CHANNELS 6 Xposition Yposition Zposition Zrotation Xrotation Yrotation 
						JOINT LowerArm_L
						{
							OFFSET 24.3286 1.87007e-05 0.0
							CHANNELS 6 Xposition Yposition Zposition Zrotation Xrotation Yrotation 
							JOINT Hand_L
							{
								OFFSET 22.2916 0.0 0.0
								CHANNELS 6 Xposition Yposition Zposition Zrotation Xrotation Yrotation 
								End Site
								{
									OFFSET 0.0 0.0 0.0
								}
							}
						}
					}
				}
				JOINT Shoulder_R
				{
					OFFSET 12.9945 -0.242716 -4.98039
					CHANNELS 6 Xposition Yposition Zposition Zrotation Xrotation Yrotation 
					JOINT UpperArm_R
					{
						OFFSET -5.34813 0.0 0.0
						CHANNELS 6 Xposition Yposition Zposition Zrotation Xrotation Yrotation 
						JOINT LowerArm_R
						{
							OFFSET -24.3289 0.000322201 0.0
							CHANNELS 6 Xposition Yposition Zposition Zrotation Xrotation Yrotation 
							JOINT Hand_R
							{
								OFFSET -22.2915 -0.000108084 0.0
								CHANNELS 6 Xposition Yposition Zposition Zrotation Xrotation Yrotation 
								End Site
								{
									OFFSET 0.0 0.0 0.0
								}
							}
						}
					}
				}
			}
		}
		JOINT UpperLeg_L
		{
			OFFSET -2.19248 -6.46944 0.0
			CHANNELS 6 Xposition Yposition Zposition Zrotation Xrotation Yrotation 
			JOINT LowerLeg_L
			{
				OFFSET 39.0811 0.0 -1.23785e-05
				CHANNELS 6 Xposition Yposition Zposition Zrotation Xrotation Yrotation 
				JOINT Foot_L
				{
					OFFSET 40.9854 0.0 -1.26872e-05
					CHANNELS 6 Xposition Yposition Zposition Zrotation Xrotation Yrotation 
					JOINT Toes_L
					{
						OFFSET 11.7543 0.0 0.0
						CHANNELS 6 Xposition Yposition Zposition Zrotation Xrotation Yrotation 
						End Site
						{
							OFFSET 0.0 0.0 0.0
						}
					}
				}
			}
		}
		JOINT UpperLeg_R
		{
			OFFSET -2.19251 6.46944 0.0
			CHANNELS 6 Xposition Yposition Zposition Zrotation Xrotation Yrotation 
			JOINT LowerLeg_R
			{
				OFFSET -39.0811 -0.00228153 -0.0401928
				CHANNELS 6 Xposition Yposition Zposition Zrotation Xrotation Yrotation 
				JOINT Foot_R
				{
					OFFSET -40.9854 0.0 0.0
					CHANNELS 6 Xposition Yposition Zposition Zrotation Xrotation Yrotation 
					JOINT Toes_R
					{
						OFFSET -11.7543 0.0 0.0
						CHANNELS 6 Xposition Yposition Zposition Zrotation Xrotation Yrotation 
						End Site
						{
							OFFSET 0.0 0.0 0.0
						}
					}
				}
			}
		}
	}
}
MOTION
Frames:	6
Frame Time:	0.0333333
0.000000 0.000000 0.000000 0.000000 0.000000 -0.000000 0.090062 92.424900 -0.701688 87.945400 -1.934770 3.241770 15.735700 0.000005 -0.000001 82.129300 85.348500 -81.324700 8.984550 -0.406207 -0.000000 1.459470 -1.317560 1.624620 16.377300 -0.000001 -0.000001 0.874592 -1.517000 -0.539102 6.456720 -0.000001 -0.000000 2.614030 -1.838760 -1.472940 12.994200 -0.242716 4.980390 -89.859900 -0.432696 -72.050700 5.348090 -0.000007 -0.000001 -71.446800 38.528300 -11.798800 24.328600 0.000019 0.000005 0.546714 1.207590 -24.367100 22.291600 -0.000001 0.000005 5.202600 5.442270 -4.366680 12.994500 -0.242716 -4.980390 88.335300 5.350520 -72.689800 -5.348130 -0.000001 -0.000004 -65.574000 40.938900 -15.780800 -24.328900 0.000322 -0.000009 1.689600 6.307670 -15.037500 -22.291500 -0.000108 -0.000004 8.599850 5.392120 -2.683000 -2.192480 -6.469440 -0.000000 -175.953000 -8.946740 -3.206780 39.081100 -0.000007 -0.000012 -0.092765 0.225714 22.342000 40.985400 -0.000006 -0.000013 0.172696 2.657540 -66.021100 11.754300 -0.000000 0.000003 -0.000064 -0.000705 -16.604800 -2.192510 6.469440 -0.000001 179.521000 14.437900 179.472000 -39.081100 -0.002282 -0.040193 -0.045421 0.146656 18.385700 -40.985400 0.000008 0.000006 2.240490 8.176660 -64.854100 -11.754300 -0.000006 -0.000006 -0.007851 -0.086809 -20.107900
0.000000 0.000000 0.000000 0.000000 0.000000 -0.000000 0.086999 92.427200 -0.704934 87.909400 -2.136560 3.233800 15.735700 0.000005 -0.000001 82.796500 85.335000 -81.936500 8.984550 -0.406207 -0.000000 1.500410 -1.216330 1.734480 16.377300 -0.000001 -0.000001 0.926528 -1.395290 -0.492188 6.456720 -0.000001 -0.000000 2.539660 -1.708520 -1.633890 12.994200 -0.242716 4.980390 -89.981500 -0.055918 -71.629800 5.348090 -0.000007 -0.000001 -71.167100 34.153800 -11.260900 24.328600 0.000019 0.000005 -0.602198 -1.140060 -27.790900 22.291600 -0.000001 0.000005 5.493620 5.466000 -5.220440 12.994500 -0.242716 -4.980390 88.345300 5.269710 -72.539500 -5.348130 -0.000001 -0.000004 -65.518900 40.460300 -15.878100 -24.328900 0.000322 -0.000009 1.708920 6.356150 -15.091300 -22.291500 -0.000108 -0.000004 8.731130 5.389830 -2.609550 -2.192480 -6.469440 -0.000000 -175.921000 -9.011170 -3.197010 39.081100 -0.000007 -0.000012 -0.092942 0.226079 22.347800 40.985400 -0.000006 -0.000013 0.141634 2.515180 -66.031200 11.754300 -0.000000 0.000003 -0.000061 -0.000675 -16.603700 -2.192510 6.469440 -0.000001 179.575000 14.295400 179.452000 -39.081100 -0.002282 -0.040193 -0.043887 0.142174 18.369700 -40.985400 0.000008 0.000006 2.312010 8.223940 -64.838900 -11.754300 -0.000006 -0.000006 -0.007501 -0.083913 -19.989600
0.000000 0.000000 0.000000 0.000000 0.000000 -0.000000 0.063379 92.432600 -0.744005 87.902500 -2.173470 3.155620 15.735700 0.000005 -0.000001 83.732800 85.350400 -82.821200 8.984550 -0.406207 -0.000000 1.487020 -1.064560 1.835570 16.377300 -0.000001 -0.000001 1.002440 -1.341170 -0.539174 6.456720 -0.000001 -0.000000 2.507640 -1.789230 -1.755360 12.994200 -0.242716 4.980390 -90.102900 0.302467 -71.213000 5.348090 -0.000007 -0.000001 -69.173800 29.904800 -12.457100 24.328600 0.000019 0.000005 -1.084110 -1.712280 -32.361800 22.291600 -0.000001 0.000005 6.236720 5.475400 -5.572410 12.994500 -0.242716 -4.980390 88.378200 5.125710 -72.416500 -5.348130 -0.000001 -0.000004 -65.777700 39.679500 -15.634900 -24.328900 0.000322 -0.000009 1.713570 6.234000 -15.411800 -22.291500 -0.000108 -0.000004 8.722830 5.388850 -2.578510 -2.192480 -6.469440 -0.000000 -175.916000 -8.994950 -3.295500 39.081100 -0.000007 -0.000012 -0.093585 0.227786 22.335200 40.985400 -0.000006 -0.000013 0.112345 2.455760 -65.994800 11.754300 -0.000000 0.000003 -0.000051 -0.000575 -16.599900 -2.192510 6.469440 -0.000001 179.631000 14.318000 179.339000 -39.081100 -0.002282 -0.040193 -0.043308 0.140437 18.369000 -40.985400 0.000008 0.000006 2.394930 8.264590 -64.821400 -11.754300 -0.000006 -0.000006 -0.007984 -0.087899 -20.152400
0.000000 0.000000 0.000000 0.000000 0.000000 -0.000000 0.008246 92.435600 -0.802890 87.933100 -1.960450 3.186060 15.735700 0.000005 -0.000001 84.324200 85.349700 -83.380400 8.984550 -0.406207 -0.000000 1.497960 -0.970959 1.898600 16.377300 -0.000001 -0.000001 1.154330 -1.336130 -0.689730 6.456720 -0.000001 -0.000000 2.602250 -1.997120 -1.784170 12.994200 -0.242716 4.980390 -90.139900 0.403710 -70.883500 5.348090 -0.000007 -0.000001 -66.043200 25.397000 -15.249200 24.328600 0.000019 0.000005 -0.358813 -0.469622 -37.441600 22.291600 -0.000001 0.000005 7.452050 5.489450 -6.108380 12.994500 -0.242716 -4.980390 88.421500 4.989530 -72.419400 -5.348130 -0.000001 -0.000004 -66.032000 39.217200 -15.321600 -24.328900 0.000322 -0.000009 1.720400 6.157970 -15.651300 -22.291500 -0.000108 -0.000004 8.753030 5.388820 -2.577510 -2.192480 -6.469440 -0.000000 -175.924000 -8.814650 -3.340000 39.081100 -0.000007 -0.000012 -0.093194 0.226856 22.333300 40.985400 -0.000006 -0.000013 0.090345 2.499490 -65.929100 11.754300 -0.000000 0.000003 -0.000059 -0.000653 -16.602800 -2.192510 6.469440 -0.000001 179.620000 14.490100 179.355000 -39.081100 -0.002282 -0.040193 -0.046137 0.149071 18.355600 -40.985400 0.000008 0.000006 2.271730 8.201900 -64.774500 -11.754300 -0.000006 -0.000006 -0.007508 -0.083966 -19.991800
0.000000 0.000000 0.000000 0.000000 0.000000 -0.000000 -0.071191 92.438000 -0.851156 87.976800 -1.657700 3.269900 15.735700 0.000005 -0.000001 84.581500 85.337400 -83.588700 8.984550 -0.406207 -0.000000 1.526640 -0.934152 1.996280 16.377300 -0.000001 -0.000001 1.316990 -1.347070 -0.920865 6.456720 -0.000001 -0.000000 2.752110 -2.102630 -1.936240 12.994200 -0.242716 4.980390 -90.105100 0.299620 -70.677100 5.348090 -0.000007 -0.000001 -62.685800 19.993400 -19.028400 24.328600 0.000019 0.000005 -0.078191 -0.084047 -42.882900 22.291600 -0.000001 0.000005 8.918040 5.500440 -6.545880 12.994500 -0.242716 -4.980390 88.455100 4.880710 -72.411400 -5.348130 -0.000001 -0.000004 -65.847300 39.434300 -15.455200 -24.328900 0.000322 -0.000009 1.717590 6.190890 -15.548200 -22.291500 -0.000108 -0.000004 8.717150 5.389570 -2.601430 -2.192480 -6.469440 -0.000000 -175.901000 -8.723340 -3.315160 39.081100 -0.000007 -0.000012 -0.092958 0.226499 22.314000 40.985400 -0.000006 -0.000013 0.083325 2.714810 -65.861600 11.754300 -0.000000 0.000003 -0.000056 -0.000623 -16.601700 -2.192510 6.469440 -0.000001 179.622000 14.617200 179.401000 -39.081100 -0.002282 -0.040193 -0.045361 0.146343 18.401300 -40.985400 0.000008 0.000006 2.341080 8.040640 -64.801000 -11.754300 -0.000006 -0.000006 -0.007683 -0.085427 -20.051400
0.000000 0.000000 0.000000 0.000000 0.000000 -0.000000 -0.167729 92.443700 -0.915818 88.008000 -1.285290 3.332270 15.735700 0.000005 -0.000001 84.220400 85.348300 -83.166900 8.984550 -0.406207 -0.000000 1.500250 -0.993967 2.118310 16.377300 -0.000001 -0.000001 1.531680 -1.345330 -1.192050 6.456720 -0.000001 -0.000000 2.829320 -2.096600 -2.056670 12.994200 -0.242716 4.980390 -89.969100 -0.088162 -70.695000 5.348090 -0.000007 -0.000001 -59.856900 13.407900 -22.961700 24.328600 0.000019 0.000005 -0.151871 -0.130631 -49.244900 22.291600 -0.000001 0.000005 10.229100 5.513060 -7.065040 12.994500 -0.242716 -4.980390 88.452700 4.854680 -72.297600 -5.348130 -0.000001 -0.000004 -65.475400 39.783300 -15.786600 -24.328900 0.000322 -0.000009 1.728410 6.333070 -15.308300 -22.291500 -0.000108 -0.000004 8.816520 5.389840 -2.610190 -2.192480 -6.469440 -0.000000 -175.846000 -8.615490 -3.346520 39.081100 -0.000007 -0.000012 -0.094470 0.230360 22.298500 40.985400 -0.000006 -0.000013 0.065800 2.981360 -65.764200 11.754300 -0.000000 0.000003 -0.000063 -0.000693 -16.604400 -2.192510 6.469440 -0.000001 179.663000 14.853600 179.442000 -39.081100 -0.002282 -0.040193 -0.043882 0.141882 18.403000 -40.985400 0.000008 0.000006 2.394730 7.853250 -64.797300 -11.754300 -0.000006 -0.000006 -0.007469 -0.083643 -19.978600
